<svg id="Layer_1" data-name="Layer 1" xmlns="http://www.w3.org/2000/svg" viewBox="0 0 225 52.56">
<defs><style>.cls-1,.cls-2{fill:#fff;}.cls-2{opacity:0.65;}</style></defs>
<title>naver_opensource</title>
<path class="cls-1" d="M72.31,13.48c-7.25,0-8.66,4-8.66,11V26c0,6.95,1.42,11,8.66,11S81,33,81,26V24.45C81,17.5,79.55,13.48,72.31,13.48Zm-5,11.08c0-5.54.2-8,5-8s5,2.44,5,8V25.9c0,5.54-.2,8-5,8s-5-2.45-5-8V24.55Z"/><path class="cls-1" d="M92.35,19.84a8.33,8.33,0,0,0-4.66,1.58L87.51,20.2h-3V43.3l3.41-.57V36.56a20.08,20.08,0,0,0,4,.41c5.7,0,6.18-4.41,6.18-8.55S98.1,19.84,92.35,19.84Zm2.27,8.58c0,4.42-.63,5.7-2.83,5.7a16.49,16.49,0,0,1-3.87-.54V24.47A6.47,6.47,0,0,1,92,22.67C94.37,22.67,94.63,24.51,94.63,28.42Z"/><path class="cls-1" d="M108.23,19.84c-6.1,0-6.94,3.92-6.94,8.16,0,6.08,1,9,6.91,9a23.8,23.8,0,0,0,5.93-.79l0.27-.08-0.22-2.95-0.41.13a20.65,20.65,0,0,1-5.23.79c-2.78,0-3.76-.62-3.76-4.11V29.64h10V27.94C114.77,22.81,113.7,19.84,108.23,19.84Zm0,2.89c2.25,0,3.13.89,3.13,3.17v0.95h-6.6V26.71C104.76,23.85,105.73,22.73,108.23,22.73Z"/><path class="cls-1" d="M127,19.84a13.55,13.55,0,0,0-5.67,1.63L121.1,20.2H118V36.62h3.41V24.5a12.91,12.91,0,0,1,5-1.64,1.17,1.17,0,0,1,1.37,1.34V36.62h3.41V23.93C131.2,21.22,129.78,19.84,127,19.84Z"/><path class="cls-1" d="M144.72,23.7l-0.24-.07c-3.68-1-4.67-1.25-4.67-3.9,0-2.1.65-3.17,4.19-3.17a21.08,21.08,0,0,1,5.54.79l0.4,0.11,0.3-3.27-0.3-.06a30,30,0,0,0-6-.66c-6.79,0-7.7,3.49-7.7,6.9,0,4.16,2.5,5.11,6,6,3.84,1,5,1.28,5,4.25,0,2.41-1.13,3.27-4.32,3.27a20,20,0,0,1-6-1l-0.41-.14L136.24,36l0.28,0.08a25.1,25.1,0,0,0,6.42.88c5.46,0,7.9-2.06,7.9-6.68S148.88,24.82,144.72,23.7Z"/><path class="cls-1" d="M160.71,19.84c-5.95,0-7.14,3.29-7.14,8.58s1.2,8.58,7.14,8.58,7.13-3.28,7.13-8.58S166.65,19.84,160.71,19.84Zm0,14.26c-3.25,0-3.71-1.18-3.71-5.68s0.46-5.68,3.71-5.68,3.7,1.18,3.7,5.68S164,34.1,160.71,34.1Z"/><path class="cls-1" d="M180.46,32.32a13.19,13.19,0,0,1-5,1.64,1.17,1.17,0,0,1-1.37-1.34V20.2h-3.38V32.88c0,2.68,1.45,4.09,4.19,4.09a13.69,13.69,0,0,0,5.69-1.62l0.2,1.26h3.06V20.2h-3.4V32.32Z"/><path class="cls-1" d="M190.81,21.82l-0.2-1.62h-3.1V36.62h3.41V25.06a12,12,0,0,1,5-1.95l0.3,0V19.74l-0.41.08A12.29,12.29,0,0,0,190.81,21.82Z"/><path class="cls-1" d="M205,22.83a20.52,20.52,0,0,1,3.93.44l0.38,0.08,0.3-3.09-0.31-.06a22.63,22.63,0,0,0-4.3-.36c-5.92,0-7.08,3.15-7.08,8.58S199,37,205,37a20.9,20.9,0,0,0,4.27-.43l0.31-.06-0.35-3-0.36.07a20.11,20.11,0,0,1-3.77.44c-3.15,0-3.7-.83-3.7-5.6C201.39,23.33,202.43,22.83,205,22.83Z"/><path class="cls-1" d="M225,29.64V27.94c0-5.12-1.07-8.1-6.53-8.1-6.1,0-6.94,3.92-6.94,8.16,0,6.08,1,9,6.9,9a23.78,23.78,0,0,0,5.93-.79l0.27-.08-0.22-2.95-0.42.13a20.63,20.63,0,0,1-5.23.79C216,34.09,215,33.46,215,30V29.64h10Zm-6.53-6.91c2.25,0,3.13.89,3.13,3.17v0.95H215V26.71C215,23.85,216,22.73,218.47,22.73Z"/><path class="cls-1" d="M0,0V52.56H52.56V0H0ZM51.6,0.81L48.12,4.29A12.85,12.85,0,0,0,41.46.81H51.6Zm-11.17,0A12.63,12.63,0,0,1,48,4.44L40.43,12V0.86Zm-14,0H39.59l0.64,0V12.19L39,13.39H26.38V0.81ZM12.32,39.36h0.73l-0.73.73V39.36ZM26.17,19.53L25.4,18.39a12.78,12.78,0,0,0,.78-2.64v3.78Zm12.47-5.75L30.9,21.51V13.77h7.74Zm0.29,0H40v12.4H30.9V21.8ZM40,26.42V39H30.78l-3.37-4.92a12.71,12.71,0,0,1,11.65-7.68h0C39.41,26.38,39.73,26.4,40,26.42Zm-9.52-.55L29,23.68l1.5-1.5v3.7Zm-0.26.3H26.53L28.75,24ZM26.38,26V20.5l2.25,3.29Zm-4.73-.39v0.53h-5.9a12.92,12.92,0,0,0,9.47-7.37l1,1.4v6H22ZM12.5,13.77h9.27l3.31,4.84a12.7,12.7,0,0,1-11.6,7.56c-0.33,0-.65,0-1,0V13.77Zm12.75,4.41-3.15-4.59h4.06A12.62,12.62,0,0,1,25.25,18.18ZM13.72,39l7.92-7.92V39H13.72Zm-0.29,0H12.5V26.38h9.15v4.39ZM22,26.87L23.46,29,22,30.38V26.87Zm0.12-.5H26l-2.31,2.31Zm4,0.15v5.72l-2.33-3.4Zm0.2-.15h4l0.5,0.73V26.38h5.9a12.93,12.93,0,0,0-9.52,7.49l-0.9-1.32V26.38Zm0.73,7.91a12.75,12.75,0,0,0-.73,2.52V33.22Zm0.14,0.2,3.2,4.67H26.38s0-.06,0-0.09A12.61,12.61,0,0,1,27.25,34.49Zm12.07-21.1,0.91-.91v0.91H39.31Zm-8.79.2v8.3L28.9,23.51l-2.53-3.69V13.59h4.15ZM26.17,0.81V11.22A12.92,12.92,0,0,0,15.85.81H26.17Zm-13.85,0c0.22,0,.45,0,0.67,0h0.94A12.7,12.7,0,0,1,26.17,13.39H12.32V0.84Zm-11.51,0H11.1A12.89,12.89,0,0,0,.81,11.11V0.81Zm0,15A12.92,12.92,0,0,0,11.22,26.17H0.81V15.84Zm0,25.6a12.84,12.84,0,0,0,3.48,6.68L0.81,51.6V41.44ZM1,51.75l3.48-3.48a12.85,12.85,0,0,0,6.71,3.48H1Zm11.16-.06a12.63,12.63,0,0,1-7.54-3.57l7.54-7.54V51.69Zm0-11.4L4.44,48A12.61,12.61,0,0,1,.81,39.56v-0.2H12.12v0.94Zm0-1.14H0.81V26.38H12.12V39.15Zm0-13.06A12.7,12.7,0,0,1,.81,13.92V13.59H12.12V26.1Zm0-12.71H0.81V13A12.7,12.7,0,0,1,12.12.86V13.39ZM26.17,51.75h-13c-0.28,0-.56,0-0.83,0V40.38l1-1H26.17V51.75ZM22,39.15V30.67l1.55-1.55,2.6,3.79v6.23H22Zm4.35,12.59V41.33A12.92,12.92,0,0,0,36.74,51.75H26.38Zm13,0H38.78a12.7,12.7,0,0,1-12.4-12.39H40.22V51.7C39.94,51.73,39.65,51.74,39.37,51.75Zm12.38,0H41.4A12.88,12.88,0,0,0,51.74,41.4V51.75Zm0-12.27A12.7,12.7,0,0,1,40.43,51.69V39.36H51.74v0.12Zm0-.32H40.43V26.45A12.7,12.7,0,0,1,51.74,38.74v0.42Zm0-2.42A12.92,12.92,0,0,0,41.33,26.38H51.74V36.73Zm0-10.56H40.43V13.59H51.74V26.17Zm0-12.78H40.43V12.27l7.69-7.7a12.61,12.61,0,0,1,3.62,8.55v0.26Zm0-2.25a12.84,12.84,0,0,0-3.48-6.7L51.74,1V11.14Z"/><polygon class="cls-2" points="30.71 13.58 30.71 26.49 21.87 13.58 12.31 13.58 12.31 39.17 21.84 39.17 21.84 26.26 30.68 39.17 40.24 39.17 40.24 13.58 30.71 13.58"/>
</svg>
