<?xml version="1.0" encoding="utf-8"?>
<!-- Generator: Adobe Illustrator 19.2.1, SVG Export Plug-In . SVG Version: 6.00 Build 0)  -->
<svg version="1.1" id="Layer_1" xmlns="http://www.w3.org/2000/svg" xmlns:xlink="http://www.w3.org/1999/xlink" x="0px" y="0px"
	 viewBox="0 0 157.7 75.4" style="enable-background:new 0 0 157.7 75.4;" xml:space="preserve">
<style type="text/css">
	.st0{fill:#FFFFFF;}
	.st1{fill:#F5C720;}
	.st2{clip-path:url(#SVGID_4_);fill:#8C532E;}
	.st3{opacity:0.3;clip-path:url(#SVGID_4_);fill:#8C532E;}
	.st4{opacity:0.3;clip-path:url(#SVGID_4_);}
</style>
<g>
	<g>
		<g>
			<path class="st0" d="M90.8,42.9c-1.5,2.1-3.8,3.3-6.5,3.3c-3.7,0-6.2-2.1-6.8-5.9h17.4V40c0-8.1-5.7-12.3-11.3-12.3
				c-2.8,0-5.6,1.1-7.7,3c-2.3,2.1-3.5,5-3.5,8.2c0,6.5,5,11.2,11.8,11.2c4.6,0,8.3-2,10.6-5.5l0.2-0.2l-4.1-1.8L90.8,42.9z
				 M77.6,36.8c0.7-3.2,3-5.2,6-5.2c3.1,0,5.8,2.2,6.5,5.2H77.6z"/>
			<path class="st0" d="M115.8,31c-2.1-2-4.4-3-7.1-3c-5.9,0-10.5,5-10.5,11.3c0,6.3,4.4,10.9,10.4,10.9c2.8,0,5.5-1.2,7.3-3.1v2.5
				c0,4.5-4,5.6-6.4,5.6c-2.1,0-4-0.7-5.7-2.1l-0.2-0.1l-3,3.4l0.2,0.2c2.8,2.1,5.1,2.8,8.3,2.8c5.3,0,11.4-2.6,11.4-9.9V32.5h3.7
				v-4.1h-8.3V31z M109.3,46.2c-3.7,0-6.3-2.8-6.3-6.9c0-3.9,2.7-6.9,6.3-6.9c3.7,0,6.4,3,6.4,6.9C115.9,43.2,113.1,46.2,109.3,46.2
				z"/>
			<path class="st1" d="M128,32.5h3.2v18.2c0,3-0.9,4-3.4,4c-0.7,0-1.1,0-2-0.2l-0.3,0v4.2l0.2,0c0.9,0.2,1.6,0.2,2.4,0.2
				c7.7,0,7.7-5.4,7.7-9.7V28.4H128V32.5z"/>
			<circle class="st1" cx="133.4" cy="21.6" r="2.7"/>
			<path class="st1" d="M155.8,38.9c-1.7-1.7-4.4-2.1-6.8-2.5c-2.8-0.4-4.5-0.7-4.5-2.3c0-1.4,1.3-2.3,3.4-2.3c2,0,3.5,0.8,4.6,2.4
				v1.4h4.1v-7.4h-4.1v0.7c-1.4-0.7-3.1-1-4.8-1c-4.4,0-7.6,2.7-7.6,6.4c0,1.5,0.6,3.1,1.7,4.1c2,2,4.8,2.4,7,2.7
				c2.7,0.4,4.2,0.7,4.2,2.4c0,1.4-1.6,2.3-4,2.3c-2.6,0-4.4-1.2-4.7-3.1V42h-4.2v7.6h4.2v-0.9c1.5,0.9,3.1,1.3,5.2,1.3
				c4.9,0,8.2-2.6,8.2-6.6C157.7,41.7,157,40.1,155.8,38.9z"/>
		</g>
		<g>
			<g>
				<g>
					<defs>
						<path id="SVGID_1_" d="M55.6,34.1c0-10.6-8.6-19.3-19.3-19.3c-2,0-3.9,0.3-5.7,0.8c-1.8-0.6-3.7-0.8-5.7-0.8
							c-10.6,0-19.3,8.6-19.3,19.3c0,5.3,2.2,10.2,5.7,13.7c0,10.6,8.6,19.2,19.3,19.2c10.6,0,19.2-8.6,19.3-19.2
							C53.4,44.2,55.6,39.4,55.6,34.1z"/>
					</defs>
					<use xlink:href="#SVGID_1_"  style="overflow:visible;fill:#FFFFFF;"/>
					<clipPath id="SVGID_2_">
						<use xlink:href="#SVGID_1_"  style="overflow:visible;"/>
					</clipPath>
				</g>
				<g>
					<defs>
						<path id="SVGID_3_" d="M55.6,34.1c0-10.6-8.6-19.3-19.3-19.3c-2,0-3.9,0.3-5.7,0.8c-1.8-0.6-3.7-0.8-5.7-0.8
							c-10.6,0-19.3,8.6-19.3,19.3c0,5.3,2.2,10.2,5.7,13.7c0,10.6,8.6,19.2,19.3,19.2c10.6,0,19.2-8.6,19.3-19.2
							C53.4,44.2,55.6,39.4,55.6,34.1z"/>
					</defs>
					<use xlink:href="#SVGID_3_"  style="overflow:visible;opacity:0.15;fill:#8C532E;"/>
					<clipPath id="SVGID_4_">
						<use xlink:href="#SVGID_3_"  style="overflow:visible;opacity:0.15;"/>
					</clipPath>
					<path class="st2" d="M37.5,26.4c6.2-2.9,10.6-2.9,15.5-1.3c0.8,0.3,1.5,0.5,2.2,0.8c1.2,0.5,4.9,10.7,2.8,9.2
						c-5.9-4.2-14-4.2-19.7-1.6c-5.7,2.5-9.5,9.2-16.1,18.2c-7.3,9.7,1.8,17.7,6.5,18.6c14.5,2.8,21.8-12,17.4-10.1
						c-5.1,2.2-11.4-1.7-10.7-6.8c1.2-8.6,12.8-10.2,16,1.7c2.9,10.6-7.9,21.9-17.5,22.6c-11.7,0.9-22.5-5.4-23-17.6
						C9.9,41.4,24.1,38.1,24,38.1C8.2,26.4-1.5,39.7,2.6,57.4c2.2,9.5,6.5,20.2,25.5,24c10.2,2,31.8-6.4,31.1-50.3
						C59,18.5,52.3-11.6,16.8,5C5.7,10.1,1.2,21.3,2.2,21.9c2.3,1.4,4.9,2.2,7.7,2c11.3-0.9,18.9-7.3,21.6-17
						c0.8-2.9,3.5-3.6,5.9-3.1c2.9,0.7,4.3,2.9,3.6,6c-1.3,5.5-5.8,12.4-9.9,17.5L37.5,26.4z"/>
					<path class="st3" d="M12.1,55.5c-0.8-2.5-1.3-10.3-0.7-13.4C14.5,25.6,31,15,46.2,18.4c6.7,1.5,15.5,6.9,18.6,22.3
						c0.3-0.3-12,2.6-19,13.1c-5.4,8.1-5.9,14.1-5.7,16.3c0.5,6.5,22.8-9.7,25.4-25.7c3.2-20-3-43.5-32.3-45.2
						C15.2-1.9,2.6,8.8-0.5,26.5c-3.2,18.1,8.5,40.8,22,42.3c10,1.1,9.8-0.5,9-1.2C22.7,60.2,12.1,55.5,12.1,55.5z"/>
					<g class="st4">
						<path class="st0" d="M32,49.3c5.1,9.1,17,9.8,20.7,0.9c1.1-2.5,0.4-2.6,1.2-4.5c0.6-1.3,2.4-5.9,2.5-6.9
							c2.8-19.6-1.5-18.9-1.8-15.9c-0.5,5-1.3,9.7-2.8,11.8c-9,13-23.7,5.3-31.6-0.1c-7.7-5.3-8.6-19.9-3.1-27.9
							c4.5-6.5,2.5,9.4,10.8,12.5c5.8,2.2,12.9,0.8,17.7-6.2c4.1-5.9,3.8-5.9-1.8-9C19.3-10,4.6,20,4.6,20
							C4.1,32.9,9.5,46.6,26.2,47.3L32,49.3z"/>
					</g>
				</g>
				<path class="st0" d="M47.6,34.1c0-6.3-5.1-11.3-11.3-11.3c-2.1,0-4,0.6-5.7,1.5c-1.7-1-3.6-1.5-5.7-1.5
					c-6.3,0-11.3,5.1-11.3,11.3c0,4.4,2.5,8.2,6.2,10.1c-0.4,1.1-0.5,2.3-0.5,3.5c0,6.3,5.1,11.3,11.3,11.3S42,53.9,42,47.7
					c0-1.2-0.2-2.4-0.5-3.5C45.1,42.3,47.6,38.5,47.6,34.1z"/>
			</g>
			<g>
				<g>
					<path class="st1" d="M32.5,15.2c0.2-1.5-0.1-3.1-0.8-4.4l-1.2-2.2c-1.1-2-0.4-4.4,1.6-5.5c0.8-0.4,1.1-1.4,0.6-2.2
						c-0.4-0.8-1.4-1.1-2.2-0.6c-3.5,1.9-4.8,6.4-2.8,9.9l1.2,2.2c0.5,0.9,0.6,2,0.4,3c0.5,0.1,0.9,0.2,1.4,0.4
						C31.2,15.4,31.9,15.3,32.5,15.2z"/>
					<path class="st1" d="M22.2,65c-0.1,0.6-0.2,1.3-0.2,1.9c0,4.7,3.8,8.5,8.5,8.5c4.7,0,8.5-3.8,8.5-8.5c0-0.6-0.1-1.2-0.2-1.8
						c-2.5,1.2-5.3,1.8-8.2,1.8C27.6,66.9,24.7,66.3,22.2,65z"/>
					<path class="st1" d="M6.5,28.5c-0.3,0-0.5-0.1-0.8-0.1c-3.1,0-5.7,2.5-5.7,5.7s2.5,5.7,5.7,5.7c0.3,0,0.6,0,0.8-0.1
						C6,37.9,5.7,36,5.7,34.1C5.7,32.1,6,30.2,6.5,28.5z"/>
					<path class="st1" d="M55.6,28.4c-0.3,0-0.6,0-0.8,0.1c0.5,1.8,0.8,3.7,0.8,5.6c0,1.9-0.3,3.8-0.8,5.6c0.3,0,0.5,0.1,0.8,0.1
						c3.1,0,5.7-2.5,5.7-5.7S58.7,28.4,55.6,28.4z"/>
				</g>
				<g>
					<path class="st1" d="M47.6,34.1c0-6.3-5.1-11.3-11.3-11.3c-2.1,0-4,0.6-5.7,1.5c-1.7-1-3.6-1.5-5.7-1.5
						c-6.3,0-11.3,5.1-11.3,11.3c0,4.4,2.5,8.2,6.2,10.1c-0.4,1.1-0.5,2.3-0.5,3.5c0,6.3,5.1,11.3,11.3,11.3S42,53.9,42,47.7
						c0-1.2-0.2-2.4-0.5-3.5C45.1,42.3,47.6,38.5,47.6,34.1z"/>
					<g>
						<circle cx="36.3" cy="37.5" r="1.1"/>
						<circle cx="24.9" cy="37.5" r="1.1"/>
					</g>
				</g>
			</g>
		</g>
	</g>
</g>
</svg>
