<?xml version="1.0" encoding="UTF-8" standalone="no"?><!DOCTYPE svg PUBLIC "-//W3C//DTD SVG 1.1//EN" "http://www.w3.org/Graphics/SVG/1.1/DTD/svg11.dtd"><svg width="100%" height="100%" viewBox="0 0 144 53" version="1.1" xmlns="http://www.w3.org/2000/svg" xmlns:xlink="http://www.w3.org/1999/xlink" xml:space="preserve" xmlns:serif="http://www.serif.com/" style="fill-rule:evenodd;clip-rule:evenodd;stroke-linejoin:round;stroke-miterlimit:1.41421;"><g><path d="M81.671,42.781c0.794,0 1.439,-0.646 1.439,-1.439c0,-0.793 -0.645,-1.439 -1.439,-1.439c-0.793,0 -1.439,0.646 -1.439,1.439c0,0.793 0.646,1.439 1.439,1.439" style="fill:#ffa000;fill-rule:nonzero;"/><path d="M62.543,42.781c0.794,0 1.439,-0.646 1.439,-1.439c0,-0.793 -0.645,-1.439 -1.439,-1.439c-0.793,0 -1.439,0.646 -1.439,1.439c0,0.793 0.646,1.439 1.439,1.439" style="fill:#ffa000;fill-rule:nonzero;"/><path d="M72.111,42.781c0.793,0 1.439,-0.646 1.439,-1.439c0,-0.793 -0.646,-1.439 -1.439,-1.439c-0.794,0 -1.439,0.646 -1.439,1.439c0,0.793 0.645,1.439 1.439,1.439" style="fill:#ffa000;fill-rule:nonzero;"/><path d="M87.889,13.196l-1.859,-3.198l-1.86,3.198l-2.45,-3.198l1.39,7.393l5.908,0l1.322,-7.393l-2.451,3.198Z" style="fill:#ffa000;fill-rule:nonzero;"/><path d="M28.698,19.648l1.973,0l0,11.374l-1.973,0l0,2.258l6.641,0l0,-2.258l-2.02,0l0,-4.811l5.049,0l0,-2.258l-5.049,0l0,-4.305l5.546,0l0,2.731l2.235,0l0,-4.989l-12.402,0l0,2.258Z" style="fill-rule:nonzero;"/><path d="M46.744,17.39l-4.392,0l0,2.189l1.928,0l0,11.512l-1.974,0l0,2.189l6.114,0l0,-2.189l-1.676,0l0,-13.701Z" style="fill-rule:nonzero;"/><path d="M53.882,22.14l-4.186,0l0,2.189l1.721,0l0,6.762l-1.721,0l0,2.189l5.907,0l0,-2.189l-1.721,0l0,-8.951Z" style="fill-rule:nonzero;"/><path d="M52.604,20.038c0.793,0 1.439,-0.645 1.439,-1.439c0,-0.793 -0.646,-1.439 -1.439,-1.439c-0.794,0 -1.439,0.646 -1.439,1.439c0,0.794 0.645,1.439 1.439,1.439" style="fill-rule:nonzero;"/><path d="M65.982,29.298c-0.616,1.319 -1.724,2.045 -3.12,2.045c-1.885,0 -3.151,-1.506 -3.151,-3.748c0,-2.104 1.229,-3.518 3.059,-3.518c0.733,0 1.365,0.209 1.827,0.606c0.474,0.408 0.782,1.003 0.89,1.719l0.02,0.131l2.214,0l0,-4.393l-2.236,0l0,0.571c-0.792,-0.577 -1.808,-0.892 -2.898,-0.892c-3.021,0 -5.478,2.602 -5.478,5.799c0,2.974 1.952,5.983 5.684,5.983c2.424,0 4.283,-1.19 5.236,-3.35l0.06,-0.138l-2.042,-0.955l-0.065,0.14Z" style="fill-rule:nonzero;"/><path d="M75.4,24.192l1.58,0l-3.522,2.766l0,-9.568l-4.416,0l0,2.19l1.951,0l0,11.511l-1.974,0l0,2.189l6.046,0l0,-2.189l-1.607,0l0,-3.056l5.245,5.245l2.971,0l0,-2.189l-1.949,0l-3.669,-3.669l3.89,-3.23l1.774,0l0,-2.052l-6.32,0l0,2.052Z" style="fill-rule:nonzero;"/><path d="M87.296,22.14l-4.185,0l0,2.189l1.721,0l0,6.762l-1.721,0l0,2.189l5.906,0l0,-2.189l-1.721,0l0,-8.951Z" style="fill-rule:nonzero;"/><path d="M101.249,25.186c0,-2.381 -1.549,-3.229 -2.999,-3.229c-1.126,0 -2.197,0.405 -3.542,1.346l0,-1.162l-4.369,0l0,2.189l1.905,0l0,6.76l-1.859,0l0,2.19l6.182,0l0,-2.19l-1.859,0l0,-5.577c1.046,-0.814 2.152,-1.298 2.968,-1.298c0.548,0 1.109,0.216 1.109,1.82l0,7.245l4.323,0l0,-2.19l-1.859,0l0,-5.904Z" style="fill-rule:nonzero;"/><path d="M109.748,31.412c-1.91,0 -3.243,-1.475 -3.243,-3.587c0,-2.032 1.414,-3.564 3.289,-3.564c1.901,0 3.335,1.532 3.335,3.564c0,2.045 -1.454,3.587 -3.381,3.587m3.357,-9.271l0,1.327c-1.096,-1.016 -2.303,-1.511 -3.679,-1.511c-3.097,0 -5.523,2.597 -5.523,5.914c0,3.32 2.284,5.73 5.432,5.73c1.419,0 2.86,-0.612 3.77,-1.583l0,1.269c0,2.307 -2.096,2.921 -3.334,2.921c-1.078,0 -2.08,-0.366 -2.979,-1.09l-0.114,-0.092l-1.586,1.797l0.136,0.099c1.473,1.076 2.654,1.476 4.359,1.476c2.75,0 5.96,-1.357 5.96,-5.18l0,-8.889l1.951,0l0,-2.188l-4.393,0Z" style="fill-rule:nonzero;"/><path d="M17.806,29.664l-4.329,-4.329l4.329,-4.329l0,-3.612l-0.003,-0.004l-7.945,7.945l7.945,7.945l0.003,-0.004l0,-3.612Z" style="fill-rule:nonzero;"/><path d="M126.409,21.006l4.329,4.329l-4.329,4.329l0,3.613l0.003,0.003l7.945,-7.945l-7.945,-7.945l-0.003,0.004l0,3.612Z" style="fill-rule:nonzero;"/></g></svg>