<?xml version="1.0" encoding="utf-8"?>
<!-- Generator: Adobe Illustrator 19.2.1, SVG Export Plug-In . SVG Version: 6.00 Build 0)  -->
<svg version="1.1" id="Layer_1" xmlns="http://www.w3.org/2000/svg" xmlns:xlink="http://www.w3.org/1999/xlink" x="0px" y="0px"
	 viewBox="0 0 170.7 81.3" style="enable-background:new 0 0 170.7 81.3;" xml:space="preserve">
<style type="text/css">
	.st0{fill:#F5C720;}
</style>
<g>
	<path d="M36.9,48.1c-2.9,4.2-7.7,6.6-13.1,6.6c-7.4,0-12.3-4.3-13.7-11.8H45v-0.5c0-16.1-11.4-24.5-22.7-24.5
		c-5.6,0-11.2,2.2-15.3,6.1c-4.5,4.2-7,10-7,16.4c0,13,9.9,22.5,23.6,22.5c9.1,0,16.7-3.9,21.3-11.1l0.3-0.5l-8.1-3.6L36.9,48.1z
		 M10.4,35.9c1.4-6.4,6-10.4,12.1-10.4c6.1,0,11.5,4.4,13,10.4H10.4z"/>
	<path d="M86.9,24.3c-4.2-4-8.9-5.9-14.2-5.9c-11.8,0-21.1,9.9-21.1,22.6c0,12.7,8.7,21.9,20.7,21.9c5.5,0,11.1-2.4,14.5-6.2v5.1
		c0,8.9-8.1,11.3-12.9,11.3c-4.2,0-8-1.4-11.5-4.2l-0.4-0.3l-6,6.8l0.4,0.3c5.6,4.1,10.1,5.6,16.7,5.6c10.5,0,22.8-5.2,22.8-19.8
		V27.3h7.5v-8.2H86.9V24.3z M74,54.6c-7.4,0-12.5-5.7-12.5-13.8C61.5,33,66.9,27,74.2,27C81.5,27,87,33,87,40.8
		C87,48.7,81.4,54.6,74,54.6z"/>
	<path class="st0" d="M111.3,27.3h6.4v36.5c0,6-1.7,8-6.8,8c-1.4,0-2.3-0.1-4-0.3l-0.6-0.1v8.4l0.4,0.1c1.8,0.4,3.2,0.5,4.9,0.5
		c15.4,0,15.4-10.8,15.4-19.4V19.1h-15.7V27.3z"/>
	<circle class="st0" cx="122.1" cy="5.4" r="5.4"/>
	<path class="st0" d="M167,40.2c-3.4-3.4-8.9-4.2-13.7-4.9c-5.6-0.8-9.1-1.5-9.1-4.5c0-2.8,2.7-4.6,6.8-4.6c4,0,6.9,1.5,9.2,4.8v2.9
		h8.2V19.1h-8.2v1.4c-2.7-1.3-6.1-2.1-9.6-2.1c-8.8,0-15.1,5.4-15.1,12.7c0,3.1,1.3,6.1,3.4,8.3c3.9,3.9,9.5,4.8,14,5.5
		c5.4,0.8,8.4,1.5,8.4,4.9c0,2.9-3.2,4.7-8,4.7c-5.2,0-8.8-2.4-9.4-6.2v-1.9h-8.3v15.3h8.3v-1.9c2.9,1.8,6.3,2.6,10.4,2.6
		c9.8,0,16.4-5.3,16.4-13.2C170.7,45.8,169.3,42.5,167,40.2z"/>
</g>
</svg>
