<?xml version="1.0" encoding="utf-8"?>
<!-- Generator: Adobe Illustrator 19.2.1, SVG Export Plug-In . SVG Version: 6.00 Build 0)  -->
<svg version="1.1" id="Layer_1" xmlns="http://www.w3.org/2000/svg" xmlns:xlink="http://www.w3.org/1999/xlink" x="0px" y="0px"
	 viewBox="0 0 122.5 150.9" style="enable-background:new 0 0 122.5 150.9;" xml:space="preserve">
<style type="text/css">
	.st0{clip-path:url(#SVGID_4_);fill:#8C532E;}
	.st1{opacity:0.3;clip-path:url(#SVGID_4_);fill:#8C532E;}
	.st2{opacity:0.3;clip-path:url(#SVGID_4_);}
	.st3{fill:#FFFFFF;}
	.st4{fill:#F5C720;}
</style>
<g>
	<g>
		<g>
			<g>
				<defs>
					<path id="SVGID_1_" d="M111.1,68.1c0-21.3-17.3-38.6-38.6-38.6c-3.9,0-7.8,0.6-11.3,1.7c-3.6-1.1-7.4-1.7-11.3-1.7
						c-21.3,0-38.6,17.3-38.6,38.6c0,10.7,4.3,20.3,11.3,27.3c0.1,21.2,17.3,38.5,38.5,38.5c21.3,0,38.5-17.2,38.5-38.5
						C106.8,88.5,111.1,78.8,111.1,68.1z"/>
				</defs>
				<use xlink:href="#SVGID_1_"  style="overflow:visible;fill:#FFFFFF;"/>
				<clipPath id="SVGID_2_">
					<use xlink:href="#SVGID_1_"  style="overflow:visible;"/>
				</clipPath>
			</g>
			<g>
				<defs>
					<path id="SVGID_3_" d="M111.1,68.1c0-21.3-17.3-38.6-38.6-38.6c-3.9,0-7.8,0.6-11.3,1.7c-3.6-1.1-7.4-1.7-11.3-1.7
						c-21.3,0-38.6,17.3-38.6,38.6c0,10.7,4.3,20.3,11.3,27.3c0.1,21.2,17.3,38.5,38.5,38.5c21.3,0,38.5-17.2,38.5-38.5
						C106.8,88.5,111.1,78.8,111.1,68.1z"/>
				</defs>
				<use xlink:href="#SVGID_3_"  style="overflow:visible;opacity:0.15;fill:#8C532E;"/>
				<clipPath id="SVGID_4_">
					<use xlink:href="#SVGID_3_"  style="overflow:visible;opacity:0.15;"/>
				</clipPath>
				<path class="st0" d="M75,52.9c12.4-5.7,21.2-5.8,30.9-2.6c1.5,0.5,3,1.1,4.3,1.7c2.4,1,9.7,21.4,5.5,18.4
					c-11.9-8.5-27.9-8.3-39.5-3.3c-11.4,5-18.9,18.5-32.3,36.4c-14.5,19.5,3.5,35.4,13.1,37.2c28.9,5.7,43.6-24,34.8-20.2
					c-10.3,4.4-22.8-3.4-21.4-13.5c2.4-17.2,25.5-20.3,32,3.3c5.8,21.1-15.8,43.7-35,45.2c-23.5,1.8-44.9-10.9-46-35.2
					c-1.7-37.5,26.7-44,26.5-44.2C16.5,52.7-2.9,79.5,5.2,114.8c4.4,19,13.1,40.5,51.1,47.9c20.4,4,63.5-12.8,62.1-100.6
					C118,36.9,104.6-23.3,33.5,9.9c-22,10.3-31,32.7-29.2,33.8c4.5,2.7,9.8,4.5,15.3,4.1c22.7-1.7,37.9-14.7,43.1-34
					c1.6-5.7,7-7.3,11.8-6.1c5.8,1.4,8.6,5.8,7.1,12C79,30.6,70,44.6,61.8,54.6L75,52.9z"/>
				<path class="st1" d="M24.2,111.1c-1.6-5-2.7-20.6-1.5-26.8c6.4-33,39.2-54.2,69.6-47.4c13.4,3,31.1,13.8,37.2,44.5
					c0.5-0.5-24.1,5.2-38,26.1c-10.8,16.3-11.7,28.3-11.4,32.7c1,13,45.6-19.4,50.7-51.5c6.4-40.1-5.9-86.9-64.5-90.4
					C30.4-3.9,5.2,17.6-1,53.1c-6.4,36.3,17.1,81.6,44,84.5c20.1,2.2,19.5-0.9,18-2.4C45.4,120.4,24.2,111.1,24.2,111.1z"/>
				<g class="st2">
					<path class="st3" d="M64,98.5c10.1,18.1,34,19.6,41.5,1.7c2.1-5.1,0.8-5.3,2.4-9.1c1.1-2.6,4.8-11.9,5.1-13.7
						c5.5-39.2-3-37.7-3.6-31.8c-1,9.9-2.5,19.3-5.5,23.7c-18,26.1-47.4,10.6-63.2-0.2c-15.4-10.6-17.3-39.7-6.2-55.8
						c8.9-12.9,5.1,18.9,21.6,25.1c11.7,4.4,25.7,1.6,35.4-12.5c8.2-11.9,7.6-11.7-3.6-18C38.7-20,9.3,40.1,9.3,40.1
						c-1,25.8,9.8,53,43.2,54.4L64,98.5z"/>
				</g>
			</g>
			<path class="st3" d="M95.2,68.1c0-12.5-10.2-22.7-22.7-22.7c-4.1,0-8,1.1-11.3,3c-3.3-1.9-7.2-3-11.3-3
				c-12.5,0-22.7,10.2-22.7,22.7c0,8.8,5.1,16.5,12.4,20.2c-0.7,2.2-1.1,4.5-1.1,7c0,12.5,10.2,22.7,22.7,22.7
				c12.5,0,22.7-10.2,22.7-22.7c0-2.4-0.4-4.8-1.1-7C90.2,84.6,95.2,77,95.2,68.1z"/>
		</g>
		<g>
			<g>
				<path class="st4" d="M65,30.3c0.4-3.1-0.2-6.2-1.7-8.9l-2.4-4.4c-2.2-3.9-0.7-8.9,3.2-11.1c1.5-0.9,2.1-2.8,1.3-4.3
					c-0.9-1.5-2.8-2.1-4.3-1.3c-7,3.9-9.6,12.7-5.7,19.8l2.4,4.4c1,1.8,1.3,4,0.7,6c0.9,0.2,1.9,0.5,2.8,0.7
					C62.5,30.9,63.7,30.6,65,30.3z"/>
				<path class="st4" d="M44.4,130c-0.3,1.2-0.4,2.5-0.4,3.8c0,9.4,7.6,17,17,17c9.4,0,17-7.6,17-17c0-1.2-0.1-2.4-0.4-3.6
					c-5,2.3-10.5,3.6-16.3,3.6C55.2,133.9,49.5,132.5,44.4,130z"/>
				<path class="st4" d="M13,56.9c-0.5-0.1-1.1-0.1-1.7-0.1C5.1,56.8,0,61.9,0,68.1c0,6.3,5.1,11.3,11.3,11.3c0.6,0,1.1-0.1,1.7-0.1
					c-1.1-3.5-1.7-7.3-1.7-11.2C11.3,64.2,11.9,60.5,13,56.9z"/>
				<path class="st4" d="M111.1,56.8c-0.6,0-1.1,0.1-1.7,0.1c1.1,3.5,1.7,7.3,1.7,11.2c0,3.9-0.6,7.7-1.7,11.2
					c0.5,0.1,1.1,0.1,1.7,0.1c6.3,0,11.3-5.1,11.3-11.3C122.5,61.9,117.4,56.8,111.1,56.8z"/>
			</g>
			<g>
				<path class="st4" d="M95.2,68.1c0-12.5-10.2-22.7-22.7-22.7c-4.1,0-8,1.1-11.3,3c-3.3-1.9-7.2-3-11.3-3
					c-12.5,0-22.7,10.2-22.7,22.7c0,8.8,5.1,16.5,12.4,20.2c-0.7,2.2-1.1,4.5-1.1,7c0,12.5,10.2,22.7,22.7,22.7
					c12.5,0,22.7-10.2,22.7-22.7c0-2.4-0.4-4.8-1.1-7C90.2,84.6,95.2,77,95.2,68.1z"/>
				<g>
					<circle cx="72.6" cy="74.9" r="2.3"/>
					<circle cx="49.9" cy="74.9" r="2.3"/>
				</g>
			</g>
		</g>
	</g>
</g>
</svg>
