<?xml version="1.0" encoding="utf-8"?>
<!-- Generator: Adobe Illustrator 19.2.1, SVG Export Plug-In . SVG Version: 6.00 Build 0)  -->
<svg version="1.1" id="Layer_1" xmlns="http://www.w3.org/2000/svg" xmlns:xlink="http://www.w3.org/1999/xlink" x="0px" y="0px"
	 viewBox="0 0 68.3 32.5" style="enable-background:new 0 0 68.3 32.5;" xml:space="preserve">
<style type="text/css">
	.st0{fill:#FFFFFF;}
	.st1{fill:#F5C720;}
</style>
<g>
	<g>
		<path class="st0" d="M14.7,19.2c-1.2,1.7-3.1,2.6-5.2,2.6c-2.9,0-4.9-1.7-5.5-4.7H18V17c0-6.4-4.6-9.8-9.1-9.8
			C6.7,7.1,4.5,8,2.8,9.6C1,11.3,0,13.6,0,16.1c0,5.2,4,9,9.5,9c3.6,0,6.7-1.6,8.5-4.4l0.1-0.2l-3.3-1.4L14.7,19.2z M4.2,14.4
			c0.5-2.5,2.4-4.2,4.8-4.2c2.5,0,4.6,1.7,5.2,4.2H4.2z"/>
		<path class="st0" d="M34.8,9.7c-1.7-1.6-3.6-2.4-5.7-2.4c-4.7,0-8.4,4-8.4,9c0,5.1,3.5,8.8,8.3,8.8c2.2,0,4.4-1,5.8-2.5v2
			c0,3.6-3.2,4.5-5.2,4.5c-1.7,0-3.2-0.6-4.6-1.7l-0.1-0.1l-2.4,2.7l0.2,0.1c2.3,1.6,4.1,2.3,6.7,2.3c4.2,0,9.1-2.1,9.1-7.9V10.9h3
			V7.6h-6.7V9.7z M29.6,21.9c-2.9,0-5-2.3-5-5.5c0-3.1,2.2-5.5,5.1-5.5c2.9,0,5.2,2.4,5.2,5.5C34.8,19.5,32.6,21.9,29.6,21.9z"/>
		<path class="st1" d="M44.5,10.9h2.6v14.6c0,2.4-0.7,3.2-2.7,3.2c-0.5,0-0.9,0-1.6-0.1l-0.2,0v3.4l0.2,0c0.7,0.2,1.3,0.2,1.9,0.2
			c6.1,0,6.1-4.3,6.1-7.8V7.6h-6.3V10.9z"/>
		<circle class="st1" cx="48.8" cy="2.2" r="2.2"/>
		<path class="st1" d="M66.8,16.1c-1.4-1.4-3.5-1.7-5.5-2c-2.2-0.3-3.6-0.6-3.6-1.8c0-1.1,1.1-1.8,2.7-1.8c1.6,0,2.8,0.6,3.7,1.9
			v1.2h3.3V7.6h-3.3v0.5c-1.1-0.5-2.5-0.8-3.8-0.8c-3.5,0-6,2.1-6,5.1c0,1.2,0.5,2.5,1.4,3.3c1.6,1.6,3.8,1.9,5.6,2.2
			c2.1,0.3,3.4,0.6,3.4,2c0,1.1-1.3,1.9-3.2,1.9c-2.1,0-3.5-1-3.8-2.5v-0.7h-3.3v6.1h3.3v-0.8c1.2,0.7,2.5,1,4.2,1
			c3.9,0,6.6-2.1,6.6-5.3C68.3,18.3,67.7,17,66.8,16.1z"/>
	</g>
</g>
</svg>
