
<svg version="1.1" xmlns="http://www.w3.org/2000/svg" xmlns:xlink="http://www.w3.org/1999/xlink" width="64" height="64" viewBox="0 0 500 500" xml:space="preserve">
	<polygon fill="#673ab8" points="250,39.3 432.5,144.6 432.5,355.4 250,460.7 67.5,355.4 67.5,144.6 	"/>
	<path fill="#ffffff" d="M117.2,353.6c24.3,31.1,101.4,7.4,174.2-49.5c72.8-56.9,114.4-126,90.1-157
		c-24.3-31.1-101.4-7.4-174.2,49.5C134.6,253.5,92.9,322.6,117.2,353.6z M127.6,345.5c-8-10.3-4.5-30.5,10.8-56
		c16.1-26.8,43.5-56.4,77.1-82.6c33.5-26.2,68.9-45.6,98.8-54.8c28.4-8.7,48.9-7.2,56.9,3.1c8,10.3,4.5,30.5-10.8,56
		c-16.1,26.8-43.5,56.4-77.1,82.6c-33.5,26.2-68.9,45.6-98.8,54.8C156.1,357.3,135.6,355.8,127.6,345.5z"/>
	<path fill="#ffffff" d="M381.5,353.6c24.3-31.1-17.4-100.1-90.1-157c-72.8-56.9-149.9-80.5-174.2-49.5
		c-24.3,31.1,17.4,100.1,90.1,157C280.1,361,357.3,384.7,381.5,353.6z M371.1,345.5c-8,10.3-28.5,11.8-56.9,3.1
		c-29.9-9.2-65.2-28.6-98.8-54.8c-33.5-26.2-60.9-55.8-77.1-82.6c-15.3-25.5-18.8-45.7-10.8-56c8-10.3,28.5-11.8,56.9-3.1
		c29.9,9.2,65.2,28.6,98.8,54.8c33.5,26.2,60.9,55.8,77.1,82.6C375.7,315,379.2,335.2,371.1,345.5z"/>
	<circle fill="#ffffff" cx="249.4" cy="250.4" r="28"/>
</svg>
