<?xml version="1.0" encoding="utf-8"?>
<!-- Generator: Adobe Illustrator 19.2.1, SVG Export Plug-In . SVG Version: 6.00 Build 0)  -->
<svg version="1.1" id="Layer_1" xmlns="http://www.w3.org/2000/svg" xmlns:xlink="http://www.w3.org/1999/xlink" x="0px" y="0px"
	 viewBox="0 0 61.2 75.4" style="enable-background:new 0 0 61.2 75.4;" xml:space="preserve">
<style type="text/css">
	.st0{fill:#F5C720;}
</style>
<g>
	<g>
		<g>
			<g>
				<g>
					<path class="st0" d="M32.5,15.2c0.2-1.5-0.1-3.1-0.8-4.5l-1.2-2.2c-1.1-2-0.4-4.4,1.6-5.5c0.8-0.4,1.1-1.4,0.6-2.2
						c-0.4-0.8-1.4-1.1-2.2-0.6c-3.5,1.9-4.8,6.4-2.8,9.9l1.2,2.2c0.5,0.9,0.6,2,0.4,3c0.5,0.1,0.9,0.2,1.4,0.4
						C31.2,15.4,31.9,15.3,32.5,15.2z"/>
					<path class="st0" d="M22.2,65c-0.1,0.6-0.2,1.3-0.2,1.9c0,4.7,3.8,8.5,8.5,8.5s8.5-3.8,8.5-8.5c0-0.6-0.1-1.2-0.2-1.8
						c-2.5,1.2-5.3,1.8-8.2,1.8C27.6,66.9,24.7,66.3,22.2,65z"/>
					<path class="st0" d="M6.5,28.5c-0.3,0-0.5-0.1-0.8-0.1c-3.1,0-5.7,2.5-5.7,5.7c0,3.1,2.5,5.7,5.7,5.7c0.3,0,0.6,0,0.8-0.1
						C6,37.9,5.7,36,5.7,34.1C5.7,32.1,6,30.2,6.5,28.5z"/>
					<path class="st0" d="M55.6,28.4c-0.3,0-0.6,0-0.8,0.1c0.5,1.8,0.8,3.7,0.8,5.6c0,1.9-0.3,3.8-0.8,5.6c0.3,0,0.5,0.1,0.8,0.1
						c3.1,0,5.7-2.5,5.7-5.7C61.2,30.9,58.7,28.4,55.6,28.4z"/>
				</g>
				<path class="st0" d="M47.6,34.1c0-6.3-5.1-11.3-11.3-11.3c-2.1,0-4,0.6-5.7,1.5c-1.7-1-3.6-1.5-5.7-1.5
					c-6.3,0-11.3,5.1-11.3,11.3c0,4.4,2.5,8.2,6.2,10.1c-0.4,1.1-0.5,2.3-0.5,3.5c0,6.3,5.1,11.3,11.3,11.3C36.9,59,42,53.9,42,47.7
					c0-1.2-0.2-2.4-0.5-3.5C45.1,42.3,47.6,38.5,47.6,34.1z"/>
			</g>
			<circle cx="36.3" cy="37.5" r="1.1"/>
			<circle cx="24.9" cy="37.5" r="1.1"/>
		</g>
	</g>
</g>
</svg>
